<svg xmlns="http://www.w3.org/2000/svg" xmlns:xlink="http://www.w3.org/1999/xlink" width="1080" zoomAndPan="magnify" viewBox="0 0 810 809.999993" height="1080" preserveAspectRatio="xMidYMid meet" version="1.0"><defs><clipPath id="3dfc40c1a6"><path d="M 42.246094 42.246094 L 767.496094 42.246094 L 767.496094 767.496094 L 42.246094 767.496094 Z M 42.246094 42.246094 " clip-rule="nonzero"/></clipPath><clipPath id="07c254624c"><path d="M 0 0 L 0.128906 0 L 0.128906 0.128906 L 0 0.128906 Z M 0 0 " clip-rule="nonzero"/></clipPath></defs><g clip-path="url(#3dfc40c1a6)"><path fill="#831010" d="M 405 42.246094 C 204.832031 42.246094 42.246094 204.832031 42.246094 405 C 42.246094 605.167969 204.832031 767.753906 405 767.753906 C 605.167969 767.753906 767.753906 605.167969 767.753906 405 C 767.753906 204.832031 605.167969 42.246094 405 42.246094 Z M 405 73.789062 C 588.101562 73.789062 736.210938 221.898438 736.210938 405 C 736.210938 588.101562 588.101562 736.210938 405 736.210938 C 221.898438 736.210938 73.789062 588.101562 73.789062 405 C 73.789062 221.898438 221.898438 73.789062 405 73.789062 Z M 466.609375 262.558594 C 465.929688 262.683594 465.253906 262.867188 464.636719 263.050781 C 458.722656 264.101562 453.980469 268.414062 452.316406 274.140625 C 450.652344 279.933594 452.375 286.09375 456.75 290.160156 L 555.820312 389.226562 L 215.738281 389.226562 C 215.242188 389.226562 214.75 389.226562 214.257812 389.226562 C 205.570312 389.660156 198.792969 397.050781 199.226562 405.738281 C 199.65625 414.425781 207.050781 421.203125 215.738281 420.773438 L 555.820312 420.773438 L 456.75 519.839844 C 450.46875 526.121094 450.46875 536.226562 456.75 542.511719 C 463.035156 548.796875 473.140625 548.796875 479.421875 542.511719 L 603.132812 418.308594 C 603.996094 417.753906 604.859375 417.074219 605.597656 416.335938 C 605.96875 415.84375 606.277344 415.351562 606.585938 414.855469 C 606.953125 414.550781 607.261719 414.242188 607.570312 413.871094 C 608.1875 412.945312 608.679688 411.960938 609.046875 410.914062 C 609.234375 410.605469 609.417969 410.238281 609.542969 409.929688 C 609.542969 409.742188 609.542969 409.621094 609.542969 409.433594 C 609.726562 408.941406 609.910156 408.449219 610.035156 407.957031 C 610.28125 406.292969 610.28125 404.691406 610.035156 403.027344 C 610.035156 402.71875 610.035156 402.351562 610.035156 402.042969 C 610.035156 401.859375 610.035156 401.734375 610.035156 401.550781 C 609.910156 401.242188 609.726562 400.871094 609.542969 400.5625 C 609.542969 400.378906 609.542969 400.253906 609.542969 400.070312 C 609.417969 399.761719 609.234375 399.394531 609.046875 399.085938 C 609.046875 398.898438 609.046875 398.777344 609.046875 398.59375 C 608.925781 398.285156 608.742188 397.914062 608.554688 397.605469 C 608.371094 397.421875 608.246094 397.296875 608.0625 397.113281 C 607.941406 396.804688 607.753906 396.4375 607.570312 396.128906 C 607.015625 395.265625 606.335938 394.402344 605.597656 393.664062 L 605.105469 393.664062 C 604.796875 393.292969 604.488281 392.984375 604.121094 392.679688 L 479.421875 267.488281 C 476.15625 263.976562 471.414062 262.191406 466.609375 262.558594 Z M 466.609375 262.558594 " fill-opacity="1" fill-rule="nonzero"/></g><g clip-path="url(#07c254624c)"><path stroke-linecap="square" transform="matrix(0.0696249, 0, 0, 0.0696249, -9.107205, -9.107189)" fill="none" stroke-linejoin="miter" d="M 124.632302 0.0247037 C 124.632302 68.86452 68.864757 124.632066 0.0249407 124.632066 C -68.87098 124.632066 -124.638525 68.86452 -124.638525 0.0247037 C -124.638525 -68.871217 -68.87098 -124.638762 0.0249407 -124.638762 C 68.864757 -124.638762 124.632302 -68.871217 124.632302 0.0247037 Z M 124.632302 0.0247037 " stroke="#000000" stroke-width="20" stroke-opacity="1" stroke-miterlimit="4"/></g></svg>